<?xml version="1.0" encoding="utf-8"?>
<!-- Generator: Adobe Illustrator 26.0.0, SVG Export Plug-In . SVG Version: 6.00 Build 0)  -->
<svg version="1.1" id="Layer_1" xmlns="http://www.w3.org/2000/svg" xmlns:xlink="http://www.w3.org/1999/xlink" x="0px" y="0px"
	 viewBox="0 0 610 422" style="enable-background:new 0 0 610 422;" xml:space="preserve">
<style type="text/css">
	.st0{fill:#F3BA5F;}
	.st1{fill:#5B94C8;}
	.st2{fill:#DFDFDE;}
	.st3{fill:#595757;}
	.st4{fill:#FEFEFE;}
</style>
<g>
	<path class="st0" d="M219.27,155.4c0-13.33-0.01-26.66,0-39.99c0.05-43.42,34.8-80.75,78.04-84.91c42-4.04,79.89,22.09,91.47,60.47
		c16.76,55.54-22.3,107.99-74.54,111.91c-27.26,2.05-54.61,0.39-81.91,0.72c-4.12,0.05-9.46,1.8-12.07-0.75
		c-2.83-2.78-0.9-8.21-0.95-12.47C219.18,178.72,219.27,167.06,219.27,155.4z"/>
	<path class="st1" d="M450.32,141.24c-25.42-10.39-35.43-27.87-28.39-48.98c6.82-20.46,25.44-28.61,50.86-22.27
		c2.47-25.44,16.17-40.11,37.43-40.07c21.28,0.04,34.6,14.39,37.34,40.22c26.78-6.49,45.76,1.97,51.71,23.6
		c5.26,19.1-3.48,40.98-29.47,47.39c6.58,7.87,9.97,16.69,9.61,26.94c-0.53,14.95-10.41,28.44-24.97,33.51
		c-14.12,4.92-30.44,0.55-39.96-10.7c-4.17-4.93-4.17-4.93-8.44-0.2c-13.84,15.35-35.81,17.26-51.66,4.5
		c-15.11-12.17-17.87-34.31-6.32-50.78C448.71,143.47,449.39,142.53,450.32,141.24z"/>
	<path class="st2" d="M101.24,203.74c-28.64,0-57.28,0.01-85.92-0.01c-7.7,0-9.43-2.66-5.77-9.41
		c15.76-29.06,31.65-58.05,47.48-87.08c8.51-15.61,16.98-31.24,25.45-46.87c4.83-8.91,9.58-17.87,14.45-26.76
		c2.71-4.94,6.43-4.97,9.26,0.09c6.16,11.02,12.11,22.16,18.17,33.24c17.6,32.22,35.23,64.42,52.8,96.66
		c5.65,10.36,11.21,20.77,16.65,31.24c3.2,6.15,1.39,8.88-5.65,8.88C159.18,203.75,130.21,203.74,101.24,203.74z"/>
	<path class="st3" d="M200.66,410.73c-51.65,0-103.3,0-154.95,0c-7.1,0-8.54-1.4-8.56-8.36c-0.02-7.83-0.02-15.66,0-23.49
		c0.02-7.16,1.2-8.3,8.53-8.3c44.65,0,89.3,0,133.96,0c6.64,0,6.64-0.01,6.65-6.56c0.01-10.43,0.01-10.43-10.56-10.43
		c-42.82,0-85.64,0-128.46,0c-1.66,0-3.37,0.15-4.98-0.15c-3.38-0.63-5.35-2.7-5.07-6.29c0.26-3.3,2.23-5.07,5.5-5.36
		c0.99-0.09,2-0.03,3-0.03c47.82,0,95.64,0,143.45,0c7.33,0,8.93,1.64,8.95,9.19c0.02,7.33,0.02,14.66,0,21.99
		c-0.02,7.62-1.74,9.35-9.49,9.35c-44.49,0.02-88.97,0.09-133.46-0.1c-4.94-0.02-6.67,1.03-6.45,6.28
		c0.44,10.42,0.12,10.43,10.61,10.43c95.64,0,191.27-0.04,286.91,0.12c5.05,0.01,6.49-1.18,6.31-6.29
		c-0.42-11.65-0.24-23.32-0.06-34.98c0.05-3.31-1.05-4.23-4.29-4.23c-39.15,0.09-78.31,0.09-117.46,0.01
		c-3.21-0.01-4.49,0.88-4.35,4.24c0.22,5.66-0.05,11.33,0.1,16.99c0.11,4.07-1.16,7.15-5.57,7.28c-4.31,0.13-6.15-2.74-6.16-6.83
		c-0.03-8.83-0.11-17.66,0.03-26.49c0.08-5.03,2.09-6.94,7.07-6.95c45.15-0.03,90.3-0.04,135.46,0c4.86,0,6.91,2.07,6.93,7.09
		c0.07,18.16,0.07,36.32,0,54.48c-0.02,5.69-1.99,7.39-8.12,7.39C304.29,410.73,252.47,410.73,200.66,410.73z"/>
	<path class="st3" d="M467.06,410.73c-25.98,0-51.97-0.03-77.95,0.03c-4.08,0.01-7.43-0.68-7.83-5.53
		c-0.33-4.05,2.35-6.29,7.72-6.31c18.32-0.06,36.65-0.25,54.96,0.12c5.33,0.11,6.51-1.6,6.22-6.49c-0.4-6.81-0.02-13.65-0.13-20.48
		c-0.06-4.02,1.11-6.96,5.58-7.29c3.9-0.29,6.06,2.25,6.13,7.34c0.11,7.33,0.2,14.66-0.04,21.98c-0.12,3.59,0.76,4.92,4.67,4.89
		c23.48-0.18,46.97-0.2,70.45,0.01c4.15,0.04,4.9-1.42,4.89-5.15c-0.11-44.3-0.07-88.61-0.07-132.91c0-9.56,1.45-11.01,10.95-11.02
		c4.16,0,8.33-0.06,12.49,0.02c3.69,0.07,6.1,1.87,6.15,5.72c0.06,3.83-2.24,5.7-5.96,5.92c-1,0.06-2,0.01-3,0.01
		c-10.33,0.08-8.9-1.01-8.91,9.17c-0.04,43.64-0.02,87.28-0.02,130.91c0,7.8-1.23,9.05-8.87,9.05
		C518.69,410.73,492.88,410.73,467.06,410.73z"/>
	<path class="st3" d="M454.94,272.91c10.99,0,21.98-0.01,32.97,0c22.68,0.01,40.28,17.14,40.86,39.77
		c0.56,21.88-17.27,40.44-39.89,40.81c-22.64,0.37-45.3,0.4-67.94-0.01c-23.37-0.42-40.1-18.62-39.7-42.34
		c0.36-21.23,18.69-38.23,41.22-38.24C433.29,272.91,444.11,272.91,454.94,272.91z"/>
	<path class="st3" d="M277.93,318.91c-18.32,0-36.65,0.01-54.97-0.01c-6.6-0.01-8.21-1.57-8.22-8.29c-0.05-17.49-0.04-34.98,0-52.47
		c0.02-6.47,1.85-8.21,8.41-8.21c36.65-0.01,73.3-0.01,109.95,0c5.41,0,8.14,2.01,8.15,5.89c0.01,3.78-2.87,5.93-8.17,5.94
		c-33.65,0.02-67.3,0.11-100.95-0.11c-4.74-0.03-5.9,1.38-5.78,5.9c0.3,11.49,0.29,22.99,0,34.48c-0.11,4.32,1.43,5.27,5.44,5.25
		c32.98-0.13,65.97-0.08,98.95-0.07c1.33,0,2.67-0.05,4,0.03c3.83,0.22,6.56,1.96,6.43,6.07c-0.13,4.07-2.82,5.65-6.75,5.64
		C315.58,318.88,296.76,318.91,277.93,318.91z"/>
	<path class="st3" d="M191.89,295.87c-1.91-0.09-3.44-1.11-5.06-1.96c-21.92-11.51-43.9-22.94-65.76-34.58
		c-2.72-1.45-4.63-1.31-7.26,0.09c-22.01,11.7-44.11,23.24-66.19,34.82c-4.69,2.46-8.41,1.95-9.88-1.62
		c-1.75-4.25,0.44-6.84,4.16-8.78c23.72-12.39,47.42-24.81,71.07-37.31c3.07-1.62,5.74-1.8,8.9-0.12
		c23.79,12.61,47.65,25.09,71.49,37.6c3.01,1.58,5.32,3.56,4.35,7.4C196.96,294.37,194.92,295.8,191.89,295.87z"/>
	<path class="st3" d="M117.52,307.19c23.13,0,46.26,0,69.4,0c1.5,0,3-0.01,4.49,0.05c3.9,0.15,6.61,2.17,6.51,6.06
		c-0.1,3.85-2.71,5.67-6.76,5.65c-20.8-0.08-41.6,0.08-62.4-0.13c-4.17-0.04-6.3,0.67-5.51,5.34c0.33,1.94,0.05,3.98,0.05,5.98
		c0.01,3.62-1.94,5.71-5.37,5.96c-3.48,0.26-5.74-1.74-6.22-5.16c-0.37-2.61-0.43-5.33-0.18-7.96c0.33-3.42-1.07-4.15-4.24-4.13
		c-20.63,0.12-41.27,0.07-61.91,0.05c-1.8,0-3.66,0.3-5.36-0.71c-2.07-1.24-2.94-3.06-2.83-5.43c0.11-2.42,1.26-4.26,3.54-4.9
		c1.88-0.53,3.93-0.64,5.9-0.64C70.25,307.17,93.88,307.19,117.52,307.19z"/>
	<path class="st3" d="M392.6,249.92c10.82,0,21.64-0.02,32.45,0.01c5.16,0.01,8.37,2.36,7.94,6.08c-0.53,4.54-3.67,5.79-7.85,5.78
		c-18.64-0.07-37.28,0.07-55.92-0.12c-3.87-0.04-5.14,0.88-5.07,4.95c0.26,14.31,0.1,28.63,0.1,42.94c0,1.16,0.05,2.34-0.06,3.49
		c-0.35,3.67-2.23,5.89-6.09,5.81c-3.64-0.08-5.6-2.32-5.62-5.72c-0.11-19.14-0.13-38.28,0.02-57.42c0.03-4.34,3.08-5.84,7.15-5.82
		C370.63,249.95,381.62,249.92,392.6,249.92z"/>
	<path class="st3" d="M488.94,261.75c-10.15,0-20.3,0.02-30.45-0.01c-6.55-0.02-8.36-1.8-8.41-8.18c-0.03-4.83-0.02-9.65,0-14.48
		c0.01-3.71,1.72-6.11,5.56-6.28c3.89-0.17,5.65,2.24,6.08,5.84c0.1,0.82,0.06,1.66,0.07,2.49c0.13,8.78,0.13,8.78,8.68,8.78
		c16.47,0,32.94-0.01,49.42,0.01c5.36,0.01,8.15,2.07,8.15,5.89c0,3.83-2.8,5.91-8.15,5.93
		C509.57,261.78,499.25,261.75,488.94,261.75z"/>
	<path class="st4" d="M455,284.71c11.66,0,23.33-0.31,34.98,0.08c13.64,0.45,24.08,10.21,26.59,24.09
		c2.22,12.26-4.95,25.29-16.81,30.43c-3.85,1.67-7.9,2.46-12.14,2.45c-21.82-0.05-43.65,0.03-65.47-0.04
		c-16.12-0.05-28.83-12.16-29.06-27.5c-0.25-16.7,11.58-29.17,28.43-29.56c11.16-0.26,22.32-0.05,33.48-0.05
		C455,284.65,455,284.68,455,284.71z"/>
</g>
</svg>
